<svg width="24" height="24" viewBox="0 0 24 24" fill="none" xmlns="http://www.w3.org/2000/svg">
<g clip-path="url(#clip0_1_199)">
<path d="M11.86 0.0359942C12.228 -0.0640058 12.62 0.0419942 12.888 0.311994L23.688 11.112C23.82 11.244 23.915 11.4084 23.9634 11.5888C24.0118 11.7691 24.0119 11.959 23.9636 12.1394C23.9154 12.3197 23.8205 12.4842 23.6886 12.6163C23.5567 12.7485 23.3923 12.8435 23.212 12.892L19.81 13.8C19.6298 13.8483 19.4401 13.8483 19.2599 13.7998C19.0798 13.7514 18.9156 13.6562 18.784 13.524L17.838 12.578L13.442 23.338C13.3756 23.5001 13.2701 23.6434 13.1351 23.755C13 23.8666 12.8394 23.9431 12.6677 23.9777C12.4959 24.0123 12.3183 24.004 12.1505 23.9535C11.9827 23.9029 11.83 23.8117 11.706 23.688L6.75999 18.744L2.33999 23.164C2.24239 23.2678 2.12494 23.351 1.99458 23.4086C1.86423 23.4662 1.72364 23.497 1.58116 23.4992C1.43867 23.5014 1.29719 23.475 1.16512 23.4215C1.03304 23.3679 0.913065 23.2884 0.8123 23.1877C0.711536 23.0869 0.632039 22.9669 0.578527 22.8349C0.525016 22.7028 0.498581 22.5613 0.50079 22.4188C0.502999 22.2763 0.533808 22.1357 0.591388 22.0054C0.648968 21.875 0.732146 21.7576 0.835986 21.66L5.25599 17.24L0.311986 12.294C0.188639 12.1701 0.0977374 12.0176 0.047322 11.8502C-0.0030934 11.6828 -0.0114685 11.5055 0.0229375 11.3341C0.0573436 11.1626 0.13347 11.0023 0.244583 10.8673C0.355696 10.7323 0.498371 10.6267 0.659986 10.56L11.42 6.16399L10.474 5.21799C10.3418 5.08639 10.2466 4.92222 10.1982 4.74207C10.1497 4.56192 10.1496 4.37217 10.198 4.19199L11.108 0.791994C11.1551 0.610408 11.2495 0.444564 11.3816 0.311394C11.5137 0.178225 11.6788 0.0845003 11.86 0.0359942Z" fill="#FFA24C"/>
</g>
<defs>
<clipPath id="clip0_1_199">
<rect width="24" height="24" fill="white"/>
</clipPath>
</defs>
</svg>
